<svg width="350" height="168" viewBox="0 0 350 168" fill="none" xmlns="http://www.w3.org/2000/svg">
<path opacity="0.03" fill-rule="evenodd" clip-rule="evenodd" d="M210.081 63.8027C215.208 67.8034 219.74 72.4679 221.845 77.6526C222.39 78.9444 222.762 80.2899 222.984 81.6354C223.975 88.4169 219.418 95.9518 210.676 98.4994C196.856 102.536 183.037 93.1531 173.7 84.7211C158.37 70.8891 142.966 56.9674 131.078 41.4669C130.104 40.1955 129.146 38.9076 128.186 37.6162C122.846 30.4341 117.43 23.1488 108.739 18.0547C101.003 13.5243 91.4911 11.2214 81.9546 8.91256C73.4771 6.86016 64.9806 4.80313 57.6962 1.17271C55.6007 0.12614 53.5667 -1.05794 51.5314 -2.2428C49.9142 -3.18423 48.2962 -4.12616 46.6458 -5H-12.5V-2.18769C-9.99849 -0.25346 -10.4293 2.43087 -12.5 4.08471V24.7291C-9.74574 24.3572 -7.00056 23.8638 -4.2976 23.3779L-4.29753 23.3779L-4.29746 23.3779L-4.29739 23.3779L-3.6234 23.2568C19.508 19.0947 45.7352 16.6727 65.6719 26.1273C74.9542 30.5412 81.7116 37.007 88.4704 43.4741L88.4705 43.4741L88.4705 43.4742L88.4706 43.4742C91.1069 45.9968 93.7435 48.5196 96.5303 50.9209C109.258 61.8728 125.265 70.325 141.304 78.7938L141.304 78.7938L141.304 78.7939C150.356 83.5736 159.418 88.3585 167.906 93.6011C181.816 102.198 194.14 111.998 206.466 121.799C217.599 130.653 228.734 139.507 241.04 147.476C242.922 148.692 244.833 149.89 246.745 151.089C253.664 155.426 260.594 159.771 266.202 164.986C271.155 169.579 274.994 175.069 276.257 180.774V180.845C276.852 183.518 272.195 185.061 269.744 183.016C267.094 180.792 264.419 178.567 261.719 176.342C253.25 169.328 244.656 162.403 235.938 155.531C209.538 134.721 182.146 114.591 153.789 95.1979C147.969 91.2151 143.784 88.5599 136.453 86.5685C128.85 84.4874 121.841 80.7738 115.526 77.1139C102.375 69.4893 91.379 60.0705 81.5716 50.2033C81.2209 49.8494 80.87 49.4937 80.5181 49.1371C74.9312 43.4754 69.1163 37.5825 60.4958 34.5952C50.4197 31.0958 38.8857 32.2735 27.6229 33.4236C25.4318 33.6473 23.2509 33.87 21.0931 34.057C9.94773 35.0201 -1.36913 34.9445 -12.5 33.8615V53.7697C-7.34801 60.0004 -3.6805 67.0943 -0.00419426 74.2052C5.88454 85.5956 11.7958 97.0296 23.8669 105.029C29.7356 108.91 36.7016 111.726 43.6766 114.546C47.1803 115.962 50.6863 117.379 54.0567 118.933C61.8167 122.512 68.8405 126.825 75.8653 131.138C82.2922 135.085 88.72 139.031 95.7131 142.417C102.096 145.502 108.901 148.096 115.701 150.688C123.65 153.718 131.595 156.745 138.855 160.555C140.727 161.536 142.555 162.571 144.383 163.604C149.037 166.237 153.687 168.867 159.04 170.619C162.68 171.821 166.965 172.575 170.655 171.427C176.277 169.686 177.936 164.053 175.46 160.017C172.958 155.962 167.559 153.289 162.086 151.316C159.238 150.293 156.315 149.396 153.344 148.571C149.253 147.435 145.132 146.427 141.049 145.428C125.85 141.71 111.171 138.119 100.493 128.531C94.6926 123.321 86.3416 120.65 77.9696 117.973C70.1128 115.46 62.2373 112.942 56.4342 108.312C52.7144 105.355 50.2225 101.775 47.724 98.1863C46.1304 95.8972 44.5341 93.6042 42.6148 91.4663C37.7303 86.0355 30.8921 81.7683 24.0694 77.5108C21.9669 76.1988 19.8659 74.8878 17.824 73.5439C9.15591 67.8388 1.03265 60.8421 -0.329475 52.4101C-0.577135 50.7775 -0.552363 49.0372 0.512574 47.5841C2.96441 44.301 9.23021 43.996 14.3568 44.2831C29.7365 45.1801 45.2895 47.6917 58.2916 53.6838C69.8821 59.0301 78.8722 66.8521 87.6394 74.5306C103.935 88.7932 120.33 103.181 132.416 119.507C132.441 119.525 132.441 119.543 132.466 119.561C134.076 121.768 130.311 123.974 127.686 122.378C115.6 115.04 106.189 105.532 97.3229 96.0052C96.4061 95.018 95.4915 94.0282 94.5764 93.0376C85.43 83.1377 76.2239 73.1732 64.1117 65.1657C50.7876 56.3569 33.1294 50.0598 15.174 51.2619C13.49 51.3695 11.682 51.5848 10.4685 52.4459C8.61106 53.7556 8.90825 55.9802 9.87412 57.7204C12.7625 62.9574 19.5794 65.9244 26.451 68.9154C29.6546 70.3098 32.8701 71.7093 35.7051 73.3465C42.7086 77.3964 47.4514 83.0158 52.1867 88.6263C57.1636 94.5231 62.1323 100.41 69.7088 104.455C74.1233 106.815 79.1724 108.398 84.2286 109.984C87.9374 111.147 91.65 112.311 95.1187 113.784C102.175 116.783 108.048 120.968 113.918 125.151C120.059 129.527 126.196 133.901 133.679 136.909C139.665 139.32 146.234 140.742 152.813 142.165C157.885 143.263 162.963 144.361 167.782 145.915C178.654 149.432 188.932 156.787 187.867 165.309C187.843 165.453 187.818 165.596 187.768 165.704C187.364 168.085 186.108 170.311 184.85 172.541C183.72 174.545 182.588 176.551 182.072 178.675C181.033 182.922 182.54 187.192 184.036 191.431C184.43 192.546 184.822 193.658 185.168 194.767C185.907 197.15 186.423 199.568 186.72 202H216.109C214.245 199.82 212.031 197.674 209.796 195.508L209.796 195.508L209.796 195.508C205.55 191.394 201.229 187.207 199.087 182.567C196.973 177.981 197.009 172.941 197.045 167.961C197.094 161.097 197.142 154.347 191.558 149.055C187.58 145.28 181.613 143.204 175.602 141.113C170.986 139.507 166.344 137.892 162.557 135.492C158.121 132.686 155.091 128.931 152.124 125.254L152.032 125.14L141.779 112.366C137.222 106.679 148.515 101.423 153.716 106.787C156.341 109.478 158.397 112.438 159.734 115.596C160.138 116.545 160.485 117.514 160.832 118.484L160.832 118.484C161.784 121.144 162.737 123.807 164.861 126.055C168.596 130.032 174.867 131.778 181.23 133.55C185.37 134.702 189.55 135.866 193.094 137.662C205.046 143.725 206.708 154.447 208.419 165.478C209.594 173.054 210.791 180.775 215.359 187.232C217.35 190.043 220.006 192.633 222.649 195.212C224.932 197.439 227.206 199.657 229.034 202H246.47C245.709 196.5 243.624 191.033 240.742 185.672C237.919 180.469 248.073 176.881 252.011 181.707C252.699 182.553 253.379 183.399 254.054 184.24L254.063 184.251C255.304 185.797 256.532 187.326 257.781 188.811C261.629 193.414 265.915 197.821 270.593 202H299.592C296.427 198.449 294.645 193.773 293.223 189.6C285.149 165.882 269.893 143.439 248.867 124.332C245.623 121.39 241.388 118.304 236.657 117.318C234.28 116.815 232.299 118.717 233.636 120.242C236.732 123.74 229.772 127.292 226.28 123.991C226.268 123.978 226.254 123.964 226.239 123.95C226.224 123.937 226.209 123.924 226.194 123.911C226.163 123.884 226.132 123.857 226.107 123.83C224.051 121.857 222.12 119.596 222.095 117.12C222.021 112.33 229.376 108.85 235.989 109.226C242.601 109.603 248.273 112.725 253.028 116.062C273.585 130.459 284.113 150.142 294.565 169.686C297.385 174.958 300.199 180.22 303.204 185.366C306.052 190.263 309.94 195.627 316.998 197.081C321.954 198.093 326.93 196.874 331.95 195.645C336.363 194.565 340.81 193.476 345.306 193.887C352.1 194.501 356.847 198.176 361.592 202H362.5V183.572C349.908 177.662 337.317 171.752 324.725 165.846C315.512 161.541 305.705 156.661 302.337 149.108C300.716 145.505 300.78 141.705 300.843 137.896V137.895V137.895V137.895V137.895V137.894V137.894C300.878 135.825 300.913 133.752 300.677 131.706C299.266 119.506 287.329 108.294 271.404 104.203C269.013 103.59 266.521 103.114 264.034 102.639L264.034 102.639C258.304 101.545 252.594 100.455 248.173 97.6908C241.026 93.2295 239.804 86.3207 238.559 79.2807C237.592 73.8075 236.61 68.2551 232.819 63.7117C228.058 58.0128 219.666 54.7777 211.404 51.5924C209.523 50.8669 207.648 50.144 205.824 49.3952C195.992 45.3586 186.135 38.6848 187.224 30.5399C188.142 23.7199 195.96 19.3211 203.845 14.8842C211.289 10.6958 218.793 6.4736 220.609 0.148827C221.119 -1.63148 221.137 -3.34128 220.779 -5H163.066C162.199 -3.01912 161.001 -1.08043 159.8 0.86453C158.355 3.20259 156.905 5.54971 156.017 7.99007C151.807 19.5975 160.797 31.7432 172.511 40.2469C178.013 44.2409 184.138 47.7442 190.26 51.2456C197.171 55.1991 204.079 59.1502 210.081 63.8027ZM176.649 202C176.577 198.06 175.778 194.129 173.454 190.587C169.194 184.111 160.476 179.895 152.18 175.984C129.172 165.183 106.164 154.365 84.3702 142.345C81.3793 140.693 78.4079 139.018 75.4361 137.343C64.2091 131.014 52.9756 124.682 40.6582 119.561C38.6637 118.73 36.6383 117.931 34.6127 117.132C28.9419 114.896 23.2697 112.659 18.2698 109.712C5.79591 102.369 -1.27539 91.4812 -8.3051 80.6571C-9.69132 78.5227 -11.0759 76.3907 -12.5 74.289V99.8792C-11.2204 100.542 -10.0084 101.267 -8.89956 102.086C-4.96514 104.989 -2.55302 108.9 -0.174051 112.756C3.10749 118.076 6.32596 123.294 13.3898 125.624C16.8517 126.757 20.6998 126.962 24.5314 127.166C25.5516 127.22 26.5705 127.275 27.5808 127.346C48.6814 128.853 63.6153 138.469 75.503 150.382C88.3813 163.263 100.987 173.955 121.939 180.217C124.985 181.121 128.103 181.915 131.219 182.709L131.219 182.709C137.25 184.246 143.274 185.78 148.761 188.11C155.996 191.183 162.408 196.155 163.99 202H176.649ZM152.295 -5C151.261 -3.09955 149.869 -1.20275 148.472 0.699199C146.95 2.77271 145.423 4.85235 144.352 6.94954C137.641 20.2075 149.95 34.6316 164.512 44.0323C168.713 46.7443 173.184 49.2921 177.653 51.8389L177.654 51.839L177.654 51.839C188.677 58.1202 199.689 64.3954 206.614 73.1137C209.363 76.5941 211.419 80.5769 210.651 84.5417C209.883 88.5066 205.574 92.31 200.051 92.5611C193.191 92.8661 188.213 88.1119 184.572 83.8959L184.554 83.8745C170.27 67.3585 155.986 50.8425 141.678 34.3266C130.31 21.1763 117.828 7.30834 98.2629 0.975374C95.3686 0.0380702 92.3456 -0.721191 89.3266 -1.47944L89.3265 -1.47946L89.3265 -1.47948C85.2326 -2.50769 81.1461 -3.53406 77.3981 -5H122.786C125.603 -4.03463 128.56 -3.43105 131.623 -3.70707C133.129 -3.84279 134.574 -4.31797 135.803 -5H152.295ZM-12.5 109.785V151.954C-9.02369 157.775 -5.83506 163.737 -2.65333 169.686C0.166315 174.958 2.98055 180.22 5.9848 185.366C8.83289 190.263 12.7212 195.627 19.7795 197.081C24.735 198.093 29.7115 196.874 34.7315 195.645C39.1447 194.565 43.5915 193.476 48.087 193.887C54.8815 194.501 59.6279 198.176 64.3734 202H104.549C93.727 196.922 82.905 191.843 72.083 186.764L72.0652 186.756L72.0297 186.739L71.9943 186.722C57.165 179.762 42.3357 172.802 27.5065 165.846C18.2935 161.541 8.48617 156.661 5.11799 149.108C3.49727 145.505 3.56091 141.705 3.62471 137.896C3.65938 135.825 3.6941 133.752 3.45868 131.706C2.47911 123.24 -3.56865 115.25 -12.5 109.785ZM136.533 202C134.687 201.179 132.305 200.887 130.096 200.616L129.939 200.597C113.989 198.677 98.7582 193.726 86.2019 186.37C81.2957 183.498 76.7541 180.251 72.2208 177.01C63.7561 170.957 55.3204 164.926 44.595 161.397C41.8041 160.482 38.8959 159.752 35.9893 159.023L35.9891 159.023C31.8286 157.979 27.6712 156.936 23.8659 155.351C17.4019 152.678 11.8048 147.745 12.7212 142.38C14.108 134.164 29.8345 131.096 40.0628 134.81C48.6982 137.945 54.3856 143.868 59.9716 149.685C61.002 150.758 62.029 151.828 63.0704 152.876C80.5057 170.475 105.47 184.128 133.629 191.447L134.144 191.581C141.751 193.557 150.408 195.805 153.144 201.279C153.264 201.519 153.37 201.76 153.462 202H136.533ZM-12.5 169.9C-9.11611 176.335 -6.27088 182.917 -3.99589 189.6C-2.57345 193.773 -0.791526 198.449 2.37281 202H-12.5V169.9ZM362.5 -5V25.9567C342.609 16.7021 316.559 19.1199 293.568 23.2568L292.894 23.3779C285.098 24.7791 276.951 26.2435 269.248 24.6741C261.323 23.0415 254.586 16.7804 257.608 11.2368C260.58 5.7829 270.56 4.41941 278.535 5.45995C278.575 5.46967 278.615 5.47413 278.66 5.47902C278.697 5.48316 278.737 5.48762 278.783 5.49585C285.024 6.33905 289.011 0.813399 284.429 -2.37999C283.195 -3.23975 281.979 -4.11322 280.782 -5H362.5ZM244.977 1.4413C245.763 -0.702642 246.276 -2.85116 246.549 -5H232.867C234.129 5.02826 223.124 13.9271 212.436 20.6906L212.323 20.7622C208.195 23.3786 203.804 26.1614 202.332 29.9837C199.533 37.2675 208.622 44.1746 218.009 47.4756C220.711 48.4261 223.541 49.2487 226.37 50.071C233.366 52.1045 240.356 54.1362 245.4 58.0963C251.018 62.5075 253.17 68.4857 255.316 74.4457C257.569 80.7025 259.814 86.9392 266.055 91.322C269.207 93.5354 273.108 95.0522 277.004 96.5672C281.065 98.1465 285.121 99.7237 288.319 102.086C292.254 104.989 294.666 108.9 297.045 112.756C300.326 118.076 303.545 123.294 310.609 125.624C314.07 126.757 317.919 126.962 321.75 127.166C322.77 127.22 323.789 127.275 324.799 127.346C340.272 128.451 352.429 133.917 362.5 141.45V131.683C354.568 127.327 346.475 123.147 337.85 119.561C335.855 118.73 333.83 117.931 331.804 117.132C326.133 114.896 320.461 112.659 315.461 109.712C302.987 102.369 295.916 91.4812 288.886 80.6571C281.024 68.5509 273.214 56.5247 257.955 49.6293C254.63 48.1242 251.021 46.9095 247.423 45.6983C240.513 43.3724 233.643 41.0598 228.904 36.7302C228.112 36.0125 227.691 35.0976 227.814 34.1826C228.26 31.1686 234.229 31.061 238.241 31.8683C249.707 34.1467 261.397 36.7122 270.759 42.0046C284.585 49.83 290.873 61.9925 297.187 74.2052C303.076 85.5956 308.987 97.0296 321.058 105.029C326.927 108.91 333.893 111.726 340.868 114.546C344.372 115.962 347.878 117.379 351.248 118.933C355.154 120.734 358.873 122.722 362.5 124.801V113.459C359.251 112.042 356.229 110.39 353.626 108.312C349.906 105.355 347.414 101.775 344.915 98.1863C343.322 95.8972 341.725 93.6042 339.806 91.4663C334.922 86.0355 328.084 81.7683 321.261 77.5108C319.158 76.1989 317.057 74.8878 315.015 73.5439C306.347 67.8388 298.224 60.8421 296.862 52.4101C296.614 50.7775 296.639 49.0372 297.704 47.5841C300.156 44.301 306.422 43.996 311.548 44.2831C326.928 45.1801 342.481 47.6917 355.483 53.6838C357.931 54.8127 360.262 56.052 362.5 57.3771V36.6882C360.992 35.8927 359.395 35.1869 357.687 34.5952C347.611 31.0958 336.077 32.2735 324.814 33.4236C322.623 33.6473 320.442 33.87 318.284 34.057C297.11 35.8869 275.315 33.9673 255.354 28.5134C250.401 27.1678 245.274 25.4097 242.476 22.1625C238.247 17.2403 240.83 11.2488 243.322 5.47192L243.322 5.47145L243.322 5.47105L243.322 5.47063L243.323 5.47022L243.323 5.4698C243.909 4.10947 244.491 2.76105 244.977 1.4413ZM362.5 172.131V155.048C361.75 154.33 361.013 153.606 360.289 152.876C359.248 151.828 358.221 150.758 357.19 149.685C351.604 143.868 345.917 137.945 337.282 134.81C327.053 131.096 311.327 134.164 309.94 142.38C309.024 147.745 314.621 152.66 321.085 155.351C324.89 156.936 329.047 157.979 333.208 159.023C336.115 159.752 339.023 160.482 341.814 161.397C349.625 163.967 356.222 167.864 362.5 172.131ZM361.303 65.1657C361.705 65.4315 362.104 65.6996 362.5 65.9697V101.718C357.263 97.9682 353.323 93.3003 349.378 88.6263C344.643 83.0158 339.9 77.3964 332.896 73.3465C330.062 71.7093 326.846 70.3098 323.642 68.9154C316.771 65.9244 309.954 62.9574 307.066 57.7204C306.1 55.9802 305.802 53.7556 307.66 52.4459C308.873 51.5848 310.681 51.3695 312.365 51.2619C330.321 50.0598 347.979 56.3569 361.303 65.1657Z" fill="#EEE8F1"/>
</svg>
