<svg width="375" height="440" viewBox="0 0 375 440" fill="none" xmlns="http://www.w3.org/2000/svg">
<path opacity="0.03" fill-rule="evenodd" clip-rule="evenodd" d="M230.067 158.854C236.766 163.914 242.689 169.815 245.44 176.373C246.152 178.007 246.638 179.709 246.929 181.411C248.224 189.989 242.268 199.521 230.843 202.743C212.783 207.849 194.724 195.98 182.522 185.314C162.488 167.818 142.356 150.207 126.821 130.6C125.548 128.992 124.297 127.363 123.042 125.729C116.063 116.644 108.985 107.429 97.6273 100.985C87.5182 95.2542 75.0869 92.3411 62.6242 89.4206C51.5454 86.8244 40.4417 84.2224 30.9222 79.6301C28.1836 78.3062 25.5255 76.8084 22.8656 75.3097C15.7754 71.3144 8.67259 67.3121 0 66.5785V102.948C14.7589 103.227 28.9773 105.519 41.3438 111.196C53.4744 116.779 62.3053 124.958 71.1381 133.138C74.5835 136.329 78.0292 139.521 81.6711 142.558C98.3049 156.412 119.224 167.103 140.183 177.816L140.184 177.816C152.013 183.862 163.856 189.915 174.948 196.546C193.127 207.421 209.233 219.817 225.341 232.216L225.341 232.216C239.89 243.415 254.442 254.615 270.523 264.695C272.983 266.233 275.48 267.749 277.979 269.265C287.021 274.752 296.078 280.248 303.407 286.844C309.88 292.654 314.896 299.598 316.547 306.815V306.905C317.324 310.287 311.239 312.238 308.035 309.651C304.572 306.837 301.076 304.023 297.548 301.209C286.479 292.336 275.249 283.576 263.856 274.885C229.354 248.56 193.558 223.098 156.5 198.566C148.894 193.528 143.424 190.169 133.844 187.65C123.908 185.018 114.749 180.32 106.495 175.691C89.3093 166.046 74.9391 154.132 62.1224 141.65C61.6643 141.203 61.2059 140.753 60.7463 140.302L60.746 140.302L60.7458 140.302L60.7455 140.302C53.4443 133.14 45.8451 125.686 34.5794 121.907C23.9039 118.318 11.9761 118.618 0 119.635V136.939C11.2112 138.835 21.9983 141.727 31.6989 146.055C46.846 152.817 58.5946 162.712 70.052 172.425C91.3484 190.466 112.774 208.666 128.569 229.318C128.601 229.34 128.601 229.363 128.633 229.386C130.737 232.177 125.818 234.968 122.387 232.949C106.593 223.667 94.2937 211.639 82.7069 199.589C81.5087 198.34 80.3135 197.088 79.1175 195.835C67.1646 183.312 55.1336 170.708 39.3048 160.579C28.0845 153.398 14.5124 147.538 0 144.684V169.767C0.743089 170.144 1.47152 170.53 2.18167 170.927C11.3342 176.05 17.5323 183.158 23.7207 190.255C30.2248 197.714 36.7181 205.161 46.6194 210.278C52.3885 213.262 58.987 215.265 65.5946 217.271C70.4414 218.743 75.2932 220.215 79.8263 222.078C89.048 225.871 96.7236 231.166 104.395 236.457C112.42 241.993 120.44 247.525 130.219 251.33C138.041 254.38 146.626 256.178 155.224 257.979C161.852 259.367 168.488 260.757 174.786 262.723C188.995 267.171 202.427 276.475 201.035 287.254C201.002 287.436 200.97 287.618 200.905 287.754C200.377 290.765 198.736 293.582 197.092 296.402C195.615 298.937 194.135 301.476 193.461 304.161C192.103 309.534 194.073 314.936 196.028 320.298C196.543 321.708 197.056 323.114 197.507 324.517C202.232 339.268 199.999 355.063 191.228 368.883C189.933 370.926 188.38 373.036 185.726 374.262C183.04 375.487 178.962 375.487 177.084 373.672C175.142 371.811 176.34 369.224 177.505 367.068C182.392 358.013 185.338 348.436 186.179 338.769C186.762 332.142 186.276 325.244 182.198 319.23C176.631 311.037 165.239 305.704 154.396 300.757C124.329 287.096 94.2613 273.411 65.7797 258.207C61.871 256.117 57.9878 253.998 54.104 251.879C39.4321 243.873 24.7516 235.863 8.65475 229.386C6.04821 228.335 3.40132 227.324 0.754197 226.314C0.502789 226.218 0.251378 226.122 0 226.026V240.167C23.2005 243.73 40.2907 254.888 54.1929 268.373C71.0229 284.667 87.4969 298.192 114.878 306.112C118.859 307.257 122.933 308.261 127.005 309.265C134.887 311.209 142.76 313.15 149.93 316.098C160.805 320.568 170.255 328.216 170.32 337.066C170.36 342.158 167.367 346.846 164.356 351.564C162.468 354.521 160.573 357.49 159.413 360.577C153.911 375.26 165.659 390.623 180.968 401.38C188.158 406.432 196.163 410.864 204.162 415.293C213.195 420.294 222.223 425.292 230.067 431.177C233.654 433.887 237.018 436.837 239.792 440H264.755C263.666 436.831 262.139 433.802 259.778 431.064C253.557 423.855 242.59 419.763 231.793 415.733C229.334 414.816 226.883 413.901 224.5 412.954C211.651 407.848 198.769 399.406 200.193 389.103C201.392 380.476 211.609 374.912 221.914 369.3C231.642 364.002 241.449 358.661 243.822 350.66C246.592 341.307 238.26 333.492 229.691 325.455C224.143 320.251 218.495 314.954 215.697 309.085C212.934 303.284 212.981 296.909 213.027 290.61C213.091 281.927 213.154 273.388 205.857 266.694C200.658 261.919 192.86 259.293 185.005 256.647C178.972 254.616 172.906 252.573 167.958 249.537C162.159 245.988 158.2 241.238 154.322 236.587L154.202 236.443L140.803 220.285C134.848 213.091 149.606 206.442 156.403 213.227C159.834 216.632 162.52 220.376 164.268 224.37C164.795 225.57 165.248 226.795 165.702 228.021L165.702 228.022L165.702 228.022L165.702 228.022L165.702 228.022L165.702 228.023L165.702 228.023L165.702 228.023L165.702 228.024L165.703 228.024C166.947 231.389 168.192 234.757 170.967 237.6C175.849 242.632 184.045 244.84 192.359 247.081C197.77 248.539 203.232 250.011 207.864 252.283C223.483 259.952 225.656 273.515 227.891 287.469C229.427 297.052 230.991 306.818 236.961 314.986C239.563 318.541 243.033 321.818 246.488 325.08C252.228 330.5 257.923 335.877 259.519 342.422C262.788 355.812 247.738 367.703 233.141 376.644L232.994 376.735C227.599 380.045 221.861 383.565 219.936 388.4C216.279 397.613 228.157 406.35 240.424 410.526C243.956 411.728 247.654 412.769 251.351 413.809C260.494 416.381 269.629 418.951 276.22 423.961C282.05 428.392 285.025 434.073 287.407 440H324.373C316.417 429.295 307.078 419.568 292.629 413.248C288.285 411.344 283.569 409.807 278.867 408.275L278.866 408.275C269.836 405.333 260.858 402.408 254.665 396.931C253.629 396.023 253.079 394.866 253.24 393.708C253.823 389.896 261.623 389.76 266.866 390.781C281.851 393.663 297.128 396.908 309.362 403.603C325.739 412.574 334.023 426.052 341.574 440H361.979C352.773 433.475 344.978 425.767 343.475 416.765C343.152 414.7 343.184 412.499 344.576 410.66C347.78 406.508 355.968 406.122 362.668 406.485C366.779 406.717 370.9 407.035 375 407.458V393.236C373.819 393.346 372.643 393.452 371.471 393.551C343.799 395.865 315.317 393.437 289.231 386.538C282.758 384.836 276.058 382.612 272.401 378.505C266.874 372.278 270.251 364.699 273.506 357.392C274.274 355.67 275.034 353.964 275.67 352.293C280.654 339.131 277.255 325.833 270.135 313.011C266.445 306.43 279.715 301.891 284.861 307.996C285.764 309.069 286.654 310.142 287.539 311.209L287.542 311.212C289.164 313.168 290.77 315.104 292.403 316.982C302.047 328.147 313.796 338.405 327.228 347.46C333.215 351.499 328.004 358.489 319.848 357.422C319.789 357.412 319.736 357.406 319.687 357.401L319.687 357.401C319.629 357.395 319.577 357.389 319.525 357.377C309.103 356.061 296.06 357.785 292.176 364.684C288.227 371.697 297.031 379.617 307.388 381.682C317.454 383.667 328.102 381.815 338.29 380.042L339.171 379.889C350.75 377.872 362.923 376.178 375 375.528V339.801L374.959 339.807C369.844 340.561 364.759 341.31 359.755 340.471C346.615 338.292 341.954 327.172 338.717 317.981C328.166 287.98 308.229 259.59 280.751 235.422C276.511 231.7 270.977 227.797 264.795 226.548C261.688 225.913 259.099 228.319 260.846 230.247C264.892 234.673 255.797 239.166 251.234 234.99C251.201 234.956 251.161 234.922 251.12 234.888C251.08 234.854 251.04 234.82 251.007 234.786C248.321 232.29 245.796 229.431 245.764 226.299C245.667 220.24 255.279 215.837 263.921 216.314C272.563 216.79 279.974 220.739 286.188 224.96C313.054 243.172 326.812 268.07 340.472 292.792C344.157 299.461 347.835 306.117 351.761 312.625C355.483 318.821 360.564 325.606 369.788 327.444C371.523 327.787 373.26 327.928 375 327.92V285.687C364.545 280.764 354.437 275.028 350.628 266.762C348.51 262.203 348.593 257.397 348.676 252.578V252.578C348.722 249.959 348.767 247.337 348.459 244.749C346.615 229.317 331.014 215.134 310.204 209.959C307.078 209.183 303.822 208.581 300.571 207.981C293.083 206.597 285.622 205.219 279.845 201.722C270.504 196.078 268.907 187.339 267.28 178.434C266.016 171.511 264.733 164.487 259.778 158.74C253.557 151.531 242.59 147.439 231.793 143.41L231.792 143.409L231.791 143.409L231.79 143.409L231.79 143.408L231.789 143.408L231.788 143.408C229.33 142.491 226.882 141.577 224.5 140.63C211.651 135.524 198.769 127.082 200.193 116.779C201.392 108.152 211.609 102.588 221.914 96.9757C231.642 91.6776 241.449 86.3367 243.822 78.3362C246.592 68.9831 238.26 61.1684 229.691 53.1311C224.143 47.9273 218.495 42.63 215.697 36.7615C212.934 30.9601 212.981 24.585 213.027 18.2856C213.091 9.60288 213.154 1.06405 205.857 -5.63025C200.658 -10.4053 192.86 -13.0312 185.005 -15.6764C178.972 -17.7078 172.906 -19.7505 167.958 -22.7866C162.159 -26.3357 158.2 -31.0853 154.322 -35.7372L154.202 -35.8809L152.445 -38H0V-32.1565C23.2005 -28.5934 40.2907 -17.435 54.1929 -3.95057C71.0229 12.3435 87.4969 25.8689 114.878 33.7889C118.859 34.9333 122.93 35.9381 126.999 36.9423L127 36.9423C134.873 38.8855 142.739 40.8268 149.93 43.7741C160.805 48.2448 170.255 55.8926 170.32 64.7431C170.36 69.8344 167.367 74.5227 164.356 79.2402C162.468 82.1978 160.573 85.1668 159.413 88.2537C153.911 102.936 165.659 118.3 180.968 129.057C188.158 134.109 196.163 138.541 204.162 142.97C213.195 147.971 222.223 152.969 230.067 158.854ZM0 217.918C4.10106 219.717 8.34886 221.379 12.5992 223.042C17.1781 224.833 21.7599 226.626 26.1645 228.591C36.3056 233.118 45.4846 238.574 54.6649 244.03C63.064 249.022 71.4641 254.015 80.6031 258.297C88.9449 262.2 97.8372 265.481 106.725 268.759C117.113 272.592 127.495 276.422 136.984 281.241C139.43 282.482 141.819 283.79 144.208 285.098C150.29 288.428 156.367 291.756 163.361 293.972C168.119 295.492 173.718 296.445 178.541 294.993C185.888 292.792 188.056 285.666 184.82 280.56C181.551 275.431 174.495 272.05 167.342 269.553C163.62 268.26 159.801 267.125 155.917 266.081C150.572 264.644 145.187 263.369 139.851 262.106C119.988 257.403 100.805 252.861 86.8496 240.732C79.2695 234.141 68.356 230.763 57.4151 227.377C47.1474 224.198 36.8554 221.013 29.2715 215.157C24.4103 211.416 21.1537 206.888 17.8886 202.348C15.806 199.452 13.7199 196.552 11.2116 193.847C8.00885 190.401 4.16328 187.324 0 184.434V217.918ZM375 415.289V436.169C367.272 432.84 360.096 429.249 356.81 423.482C355.548 421.281 355.159 418.467 357.587 416.81C359.172 415.721 361.535 415.449 363.736 415.313C367.508 415.068 371.27 415.069 375 415.289ZM0 -25.3532C2.76023 -25.0548 5.43873 -24.4832 7.87797 -23.626C19.1631 -19.66 26.5957 -12.1678 33.8957 -4.80921L33.8958 -4.80905L33.896 -4.80889C35.2425 -3.45154 36.5846 -2.09874 37.9454 -0.77346C60.7307 21.489 93.355 38.7589 130.155 48.0179L130.828 48.1871C140.769 50.6863 152.082 53.5303 155.659 60.454C158.884 66.7289 154.235 72.8586 149.553 79.0311C147.564 81.654 145.568 84.2846 144.169 86.9375C135.398 103.708 151.483 121.954 170.514 133.845C176.004 137.276 181.847 140.498 187.688 143.72L187.688 143.72L187.689 143.72C202.094 151.666 216.485 159.603 225.535 170.632C229.128 175.034 231.814 180.072 230.811 185.087C229.808 190.103 224.176 194.914 216.959 195.232C207.993 195.617 201.488 189.603 196.73 184.27L196.704 184.241C178.038 163.35 159.372 142.459 140.673 121.568C125.818 104.934 109.505 87.3913 83.9367 79.3805C80.1543 78.1948 76.2036 77.2344 72.2582 76.2752C64.7252 74.4439 57.2112 72.6172 50.924 69.2364C47.0544 67.1505 43.6447 64.4875 40.2608 61.8446C33.852 56.8391 27.536 51.9062 18.3644 51.1042C12.4894 50.584 6.67818 51.9611 0.910838 53.3279H0.910813H0.910789C0.607072 53.3999 0.303477 53.4718 0 53.5434V19.5076C16.5363 27.0166 33.0726 34.529 49.6089 42.0414L49.7161 42.0901L49.7339 42.0982L49.7517 42.1063C69.1625 50.9246 88.5734 59.743 107.984 68.5556C113.907 71.2562 120.51 74.0702 127.533 73.4574C134.556 72.8447 140.576 66.7628 136.304 62.8368C133.886 60.6061 129.498 60.0857 125.538 59.616L125.332 59.5916C104.489 57.1634 84.584 50.9 68.1748 41.5956C61.7632 37.9627 55.828 33.855 49.9036 29.7549C38.8415 22.0989 27.8173 14.4692 13.8008 10.006C10.1537 8.84871 6.35322 7.92554 2.55484 7.00288L2.55471 7.00285L2.55458 7.00282L2.55339 7.00253C1.70157 6.79561 0.849859 6.58872 0 6.37922V-25.3532ZM0 246.947C2.76023 247.246 5.43873 247.818 7.87797 248.675C19.1631 252.641 26.5957 260.133 33.8957 267.491C35.2423 268.849 36.5844 270.202 37.9454 271.527C60.7307 293.79 93.355 311.06 130.155 320.319L130.827 320.488C140.769 322.987 152.082 325.831 155.659 332.755C158.884 339.03 154.235 345.159 149.553 351.332C147.564 353.955 145.568 356.585 144.169 359.238C135.398 376.009 151.483 394.254 170.514 406.146C176.004 409.577 181.848 412.799 187.688 416.021C200.785 423.244 213.87 430.461 222.94 440H181.923C168.182 424.623 154.437 409.246 140.673 393.869C125.818 377.234 109.505 359.692 83.9367 351.681C80.1543 350.496 76.2036 349.535 72.2582 348.576L72.2579 348.576L72.2577 348.576C64.7248 346.744 57.2111 344.918 50.924 341.537C47.0545 339.451 43.6448 336.788 40.261 334.145L40.2608 334.145C33.852 329.14 27.536 324.207 18.3644 323.405C12.4894 322.885 6.67815 324.262 0.910802 325.629C0.607081 325.701 0.303481 325.772 0 325.844V291.808C16.5753 299.335 33.1506 306.865 49.7259 314.395C69.1453 323.218 88.5648 332.04 107.984 340.856C113.907 343.557 120.51 346.371 127.533 345.758C134.556 345.145 140.576 339.064 136.304 335.138C133.886 332.907 129.498 332.386 125.538 331.917H125.538L125.332 331.892C104.489 329.464 84.584 323.201 68.1748 313.896C61.7634 310.263 55.8284 306.156 49.9043 302.056L49.9036 302.056C38.8415 294.4 27.8173 286.77 13.8008 282.307C10.154 281.15 6.35382 280.226 2.55574 279.304L2.55522 279.304L2.55463 279.304L2.55028 279.302L2.5465 279.302L2.54313 279.301L2.54018 279.3C1.69277 279.094 0.845465 278.888 0 278.68V246.947ZM0 338.879C8.67257 339.613 15.7753 343.615 22.8656 347.61C25.5255 349.109 28.1836 350.607 30.9222 351.931C40.4417 356.523 51.5454 359.125 62.6242 361.721L62.6245 361.721L62.6247 361.721L62.6249 361.722C75.0874 364.642 87.5184 367.555 97.6273 373.285C108.985 379.729 116.063 388.945 123.042 398.03C124.297 399.663 125.548 401.293 126.821 402.901C137.175 415.968 149.57 428.149 162.617 440H0V338.879ZM375 274.607V247.6C367.544 249.186 361.509 252.834 360.564 258.251C359.373 265.002 366.607 271.192 375 274.607ZM375 238.954V220.583C372.51 219.45 370.091 218.245 367.782 216.927C351.48 207.639 342.239 193.866 333.052 180.174C322.777 164.861 312.57 149.648 292.629 140.926C288.285 139.022 283.569 137.485 278.867 135.953L278.866 135.953C269.836 133.011 260.858 130.086 254.665 124.609C253.629 123.701 253.079 122.544 253.24 121.387C253.823 117.574 261.623 117.438 266.866 118.459C281.851 121.341 297.128 124.586 309.362 131.281C327.432 141.18 335.649 156.565 343.9 172.013C351.58 186.392 359.29 200.826 375 210.942V175.977C372.373 174.39 369.751 172.802 367.199 171.176C355.871 163.96 345.255 155.109 343.475 144.443C343.152 142.378 343.184 140.177 344.576 138.339C347.78 134.186 355.968 133.8 362.668 134.163C366.779 134.395 370.9 134.713 375 135.136V120.911C373.819 121.022 372.643 121.128 371.471 121.226C343.799 123.541 315.317 121.113 289.231 114.214C282.758 112.512 276.058 110.288 272.401 106.18C266.874 99.954 270.251 92.3751 273.506 85.0676C274.274 83.3459 275.034 81.6393 275.67 79.9691C280.654 66.8067 277.255 53.5083 270.135 40.6864C266.445 34.1052 279.715 29.5665 284.861 35.6711C285.765 36.7454 286.656 37.8197 287.542 38.8881L287.542 38.8884C289.165 40.8439 290.77 42.7793 292.403 44.6578C302.047 55.823 313.796 66.0806 327.228 75.1353C333.215 79.1748 328.004 86.1644 319.848 85.0978C319.789 85.0874 319.736 85.0818 319.688 85.0766C319.63 85.0704 319.577 85.0647 319.525 85.0524C309.103 83.7362 296.06 85.4609 292.176 92.3598C288.227 99.3721 297.031 107.292 307.388 109.357C317.454 111.342 328.102 109.49 338.29 107.718L339.171 107.565C350.75 105.548 362.923 103.854 375 103.204V-38H168.478C169.155 -36.8556 169.961 -35.7551 170.967 -34.7235C175.849 -29.6921 184.045 -27.4837 192.359 -25.2432C197.77 -23.785 203.232 -22.3132 207.864 -20.0407C223.483 -12.3719 225.656 1.19151 227.891 15.145C229.427 24.7276 230.991 34.4941 236.961 42.6618C239.563 46.2175 243.033 49.4944 246.488 52.7562C252.228 58.1756 257.923 63.5533 259.519 70.0984C262.788 83.4877 247.738 95.3792 233.141 104.32L232.994 104.411C227.599 107.721 221.861 111.241 219.936 116.076C216.279 125.289 228.157 134.026 240.424 138.202C243.956 139.404 247.654 140.445 251.351 141.485C260.494 144.057 269.629 146.627 276.22 151.637C283.562 157.217 286.375 164.779 289.179 172.318C292.123 180.232 295.057 188.121 303.213 193.665C307.332 196.465 312.43 198.384 317.521 200.3L317.521 200.3C322.829 202.298 328.13 204.293 332.309 207.282C337.451 210.953 340.603 215.9 343.712 220.779C348 227.508 352.207 234.109 361.438 237.056C365.661 238.394 370.325 238.709 375 238.954ZM363.736 142.991C367.508 142.747 371.27 142.747 375 142.967V163.847C367.272 160.518 360.096 156.928 356.81 151.161C355.548 148.959 355.159 146.145 357.587 144.489C359.172 143.399 361.535 143.127 363.736 142.991Z" fill="#531D75"/>
</svg>
